<?xml version="1.0" encoding="utf-8"?>
<!-- Generator: Adobe Illustrator 21.1.0, SVG Export Plug-In . SVG Version: 6.00 Build 0)  -->
<svg version="1.1" id="Calque_1" xmlns="http://www.w3.org/2000/svg" xmlns:xlink="http://www.w3.org/1999/xlink" x="0px" y="0px"
	 viewBox="0 0 850.4 288.4" style="enable-background:new 0 0 850.4 288.4;" xml:space="preserve">
<style type="text/css">
	.st0{fill:#FFFFFF;}
</style>
<path class="st0" d="M100,228.4V205h23.3v23.3H100z"/>
<path class="st0" d="M258.7,65.9c16.4,8.7,26.4,24,30.1,45.9h-22.4c-2.7-12.2-8.2-21.1-16.6-26.7c-8.4-5.6-19-8.4-31.8-8.4
	c-15.2,0-27.9,5.8-38.3,17.4c-10.4,11.6-15.6,28.9-15.6,51.9c0,19.9,4.3,36.1,12.8,48.6c8.6,12.5,22.5,18.7,41.9,18.7
	c14.8,0,27.1-4.4,36.8-13.2c9.7-8.8,14.7-22.9,14.9-42.5h-52.4v-18.8h73.5v89.5h-14.6l-5.5-21.5c-7.5,8.4-14.2,14.3-20.1,17.5
	c-9.8,5.6-22.2,8.4-37.3,8.4c-19.5,0-36.3-6.4-50.3-19.2c-15.3-16.1-23-38.2-23-66.3c0-28,7.5-50.3,22.4-66.9
	c14.2-15.8,32.6-23.7,55.2-23.7C234,56.8,247.4,59.8,258.7,65.9z"/>
<path class="st0" d="M314.8,61.1h26.7l83.4,135.2V61.1h21.6v167.3h-25.5l-84.7-135v135h-21.6V61.1z"/>
<path class="st0" d="M615.9,61.1h22.9v167.3h-22.9V61.1z"/>
<path class="st0" d="M752,142.4l-61,86h-27.2l59.2-85.8l-55.5-81.5h28.3L752,142.4 M751.3,142.6"/>
<polyline class="st0" points="470,61.3 583.2,61.3 583.2,82.6 470.4,82.6 "/>
<polyline class="st0" points="470,207 590.9,207 590.9,228.4 470.5,228.4 "/>
<polyline class="st0" points="470,133.4 563.3,133.4 563.3,154.7 470.4,154.7 "/>
</svg>
